<?xml version="1.0" encoding="utf-8"?>
<!-- Generator: Adobe Illustrator 19.1.0, SVG Export Plug-In . SVG Version: 6.00 Build 0)  -->
<svg version="1.1" id="Capa_1" xmlns="http://www.w3.org/2000/svg" xmlns:xlink="http://www.w3.org/1999/xlink" x="0px" y="0px"
	 viewBox="-1876.7 1700.7 600 600" style="enable-background:new -1876.7 1700.7 600 600;" xml:space="preserve">
<style type="text/css">
	.st0{fill:#FFFFFF;stroke:#FFFFFF;stroke-width:49;stroke-miterlimit:10;}
	.st1{fill:#39AE00;}
	.st2{fill:#FFFFFF;}
</style>
<path class="st0" d="M-1365.5,2004.9c0-0.1,0-0.2,0-0.2c-0.1-5.3-4.4-9.5-9.7-9.5h-2.6l-39.4-76.3c-1.7-3.2-5-5.2-8.6-5.2l-67.3,0
	l2.6-20.4c0.7-8.1-1.8-15.8-7.1-21.6c-5.3-5.8-12.7-9-20.8-9h-39h-170h-39c-5.3,0-9.7,4.1-10.2,9.3l-2.1,16.8h39h79.7
	c7.5,0,13.9,5.9,14,13.3c0.2,8-6.4,14.7-14.4,14.7h-0.7h-39c0,0,0,0,0,0.1h-77.6h-38.8c-4.7,0-9,3.1-10.1,7.6
	c-1.6,6.5,3.1,12.2,9.3,12.2h39h115.4c7.2,1.1,12.5,7.3,12.3,14.8c-0.2,8.2-7,14.9-15.3,15h-67.4h-38.7c-4.7,0-9.1,3.1-10.2,7.7
	c-1.6,6.5,3.1,12.3,9.4,12.3h39h66.2c8,1.1,13.8,8.6,12.3,17.2c-1.3,7.4-8,12.6-15.5,12.6h-81.3l0,0h-39v0h-9.9
	c-4.7,0-9.1,3.1-10.2,7.7c-1.6,6.5,3.1,12.3,9.4,12.3h8.8l-3.4,35.8c-0.7,8.1,1.8,15.8,7.1,21.6c5.3,5.8,12.7,9,20.8,9h39h7.5
	c3.6,20.6,21.4,36.1,43.2,36.1c21.8,0,40.4-15.5,45.1-36.1h55.2h39h0.4l0,0c7.5-0.1,14.5-3,20.1-7.7c5.2,5,12,7.7,19.5,7.7h1.5
	c3.6,20.6,21.4,36.1,43.2,36.1c21.8,0,40.4-15.5,45.1-36.1h6.2c16.2,0,30.6-13.2,32-29.4l6.1-67.5c0-0.1,0-0.2,0-0.3
	c0-0.1,0-0.3,0-0.4C-1365.5,2005.1-1365.5,2005-1365.5,2004.9z M-1652.7,2093.8c-0.4,13.8-11.9,25-25.7,25s-24.7-11.2-24.3-25
	c0.4-13.8,11.9-25,25.7-25C-1663.3,2068.8-1652.4,2080-1652.7,2093.8z M-1428.7,2093.8c-0.4,13.8-11.9,25-25.7,25
	s-24.7-11.2-24.3-25c0.4-13.8,11.9-25,25.7-25S-1428.4,2080-1428.7,2093.8z M-1391.5,2072.1c-0.5,5.8-5.8,10.6-11.6,10.6h-6.7
	c-4.5-19.5-21.7-33.9-42.7-33.9s-39,14.4-44.5,33.9h-2.1c-2.5,0-4.8-1-6.4-2.7c-1.6-1.7-2.3-4.1-2.1-6.7l12.6-139.7l29,0l-4.6,50.9
	c-0.7,8.1,1.8,15.8,7.1,21.6c5.3,5.8,12.7,9,20.8,9h56.3L-1391.5,2072.1z"/>
<path class="st1" d="M-1365.5,2004.9c0-0.1,0-0.2,0-0.2c-0.1-5.3-4.4-9.5-9.7-9.5h-2.6l-39.4-76.3c-1.7-3.2-5-5.2-8.6-5.2l-67.3,0
	l2.6-20.4c0.7-8.1-1.8-15.8-7.1-21.6c-5.3-5.8-12.7-9-20.8-9h-39h-170h-39c-5.3,0-9.7,4.1-10.2,9.3l-2.1,16.8h39h79.7
	c7.5,0,13.9,5.9,14,13.3c0.2,8-6.4,14.7-14.4,14.7h-0.7h-39c0,0,0,0,0,0.1h-77.6h-38.8c-4.7,0-9,3.1-10.1,7.6
	c-1.6,6.5,3.1,12.2,9.3,12.2h39h115.4c7.2,1.1,12.5,7.3,12.3,14.8c-0.2,8.2-7,14.9-15.3,15h-67.4h-38.7c-4.7,0-9.1,3.1-10.2,7.7
	c-1.6,6.5,3.1,12.3,9.4,12.3h39h66.2c8,1.1,13.8,8.6,12.3,17.2c-1.3,7.4-8,12.6-15.5,12.6h-81.3l0,0h-39v0h-9.9
	c-4.7,0-9.1,3.1-10.2,7.7c-1.6,6.5,3.1,12.3,9.4,12.3h8.8l-3.4,35.8c-0.7,8.1,1.8,15.8,7.1,21.6c5.3,5.8,12.7,9,20.8,9h39h7.5
	c3.6,20.6,21.4,36.1,43.2,36.1c21.8,0,40.4-15.5,45.1-36.1h55.2h39h0.4l0,0c7.5-0.1,14.5-3,20.1-7.7c5.2,5,12,7.7,19.5,7.7h1.5
	c3.6,20.6,21.4,36.1,43.2,36.1c21.8,0,40.4-15.5,45.1-36.1h6.2c16.2,0,30.6-13.2,32-29.4l6.1-67.5c0-0.1,0-0.2,0-0.3
	c0-0.1,0-0.3,0-0.4C-1365.5,2005.1-1365.5,2005-1365.5,2004.9z M-1652.7,2093.8c-0.4,13.8-11.9,25-25.7,25s-24.7-11.2-24.3-25
	c0.4-13.8,11.9-25,25.7-25C-1663.3,2068.8-1652.4,2080-1652.7,2093.8z M-1428.7,2093.8c-0.4,13.8-11.9,25-25.7,25
	s-24.7-11.2-24.3-25c0.4-13.8,11.9-25,25.7-25S-1428.4,2080-1428.7,2093.8z M-1391.5,2072.1c-0.5,5.8-5.8,10.6-11.6,10.6h-6.7
	c-4.5-19.5-21.7-33.9-42.7-33.9s-39,14.4-44.5,33.9h-2.1c-2.5,0-4.8-1-6.4-2.7c-1.6-1.7-2.3-4.1-2.1-6.7l12.6-139.7l29,0l-4.6,50.9
	c-0.7,8.1,1.8,15.8,7.1,21.6c5.3,5.8,12.7,9,20.8,9h56.3L-1391.5,2072.1z"/>
<path d="M-1538.7,2102.7h1.5"/>
<path class="st2" d="M-1552.1,1916.1c0,1.3,0,1.9,0,3.2c0,2.5,0,5.7,0,8.2c0,2.5,0,5.7-0.6,8.2l-0.6,3.8c0,1.3-0.6,2.5-0.6,3.8
	c-0.6,2.5-0.6,5.7-1.3,8.2c-1.3,5.7-2.5,10.7-3.8,15.8c-1.9,5-3.8,10.7-5.7,15.8c-1.3,2.5-2.5,5-3.8,7.6c-0.6,1.3-1.3,2.5-1.9,3.8
	c-0.6,1.3-1.3,2.5-2.5,3.8c-1.9,2.5-3.2,4.4-5,6.3c-1.9,1.9-3.8,3.8-6.3,5.7c-4.4,3.8-9.5,6.3-14.5,8.2v-0.6c5-2.5,8.8-5.7,12.6-9.5
	c1.9-1.9,3.8-3.8,5-6.3c1.9-1.9,3.2-4.4,4.4-6.3c5.7-8.8,9.5-18.9,12.6-29.6c3.2-10.1,5-20.8,6.9-31.5c1.3-7.6,1.3-15.8,1.3-24
	c-1.3-1.9-1.9-2.5-1.9-2.5c-15.8,42.9-32.2,44.8-54.2,74.4c-21.4,30.3-2.5,63.7-2.5,63.7c18.3-0.6,53-10.1,68.7-46
	C-1529.4,1968.4-1543.9,1931.8-1552.1,1916.1z"/>
<image style="display:none;overflow:visible;" width="1772" height="1772" xlink:href="g1.png"  transform="matrix(0.8 0 0 0.8 -2278.8682 1296.1396)">
</image>
</svg>
