<svg xmlns="http://www.w3.org/2000/svg" width="24" height="24" viewBox="0 0 24 24">
    <path fill="#5F5F5F" fill-rule="nonzero" d="M20.89 7.14l1.09 5.447a1.095 1.095 0 0 1-1.068 1.308h-.196v5.447c0 .6-.49 1.09-1.09 1.09-.599 0-1.09-.49-1.09-1.09v-5.447H14.18v5.447c0 .6-.49 1.09-1.09 1.09H4.374c-.6 0-1.09-.49-1.09-1.09v-5.447h-.196a1.095 1.095 0 0 1-1.068-1.308L3.11 7.14a1.087 1.087 0 0 1 1.068-.872h15.644c.523 0 .97.37 1.068.872zM12 18.253v-4.358H5.463v4.358H12zM4.374 5.179c-.6 0-1.09-.49-1.09-1.09 0-.599.49-1.089 1.09-1.089h15.252c.6 0 1.09.49 1.09 1.09 0 .599-.49 1.089-1.09 1.089H4.374z"/>
</svg>
