<svg xmlns="http://www.w3.org/2000/svg" width="25" height="23" viewBox="0 0 25 23">
    <g fill="none" fill-rule="evenodd">
        <path fill="#EF5661" d="M18.51.21H0v15.453c0 3.663 2.817 6.48 6.48 6.48h12.03c3.662 0 6.48-2.817 6.48-6.48V6.547C24.99 2.906 22.11.21 18.51.21"/>
        <path fill="#FEFEFE" d="M21.677 4.975h-3.554l-5.139 6.202 5.138 6.201h3.554l-5.138-6.2zM9.577 4.976H3.313v2.74h5.493c.78 0 1.44.592 1.44 1.285v4.208c0 .725-.714 1.439-1.44 1.439H3.313v2.73h6.264c1.926 0 3.407-1.482 3.407-3.408V8.418c0-1.914-1.514-3.442-3.407-3.442"/>
    </g>
</svg>
