<svg xmlns="http://www.w3.org/2000/svg" width="69" height="55" viewBox="0 0 69 55">
    <path fill="#DADADA" fill-rule="evenodd" d="M39.538 46.353c6.708-3.922 13.775-12.48 15.027-19.521-.447.267-2.146.445-3.578.445-6.887 0-12.344-5.348-12.344-13.104C38.643 6.418 44.905 0 52.866 0c8.587 0 16.101 6.864 16.101 18.898 0 14.352-7.961 27.277-19.41 35.389l-10.02-7.934zm-38.643 0c6.708-3.922 13.775-12.48 15.027-19.521-.447.267-2.146.445-3.578.445C5.457 27.277 0 21.93 0 14.173 0 6.418 6.262 0 14.223 0c8.587 0 16.101 6.864 16.101 18.898 0 14.352-7.961 27.277-19.41 35.389L.893 46.353z" opacity=".629"/>
</svg>
