<svg xmlns="http://www.w3.org/2000/svg" width="60" height="48" viewBox="0 0 60 48">
    <path fill="#DADADA" fill-rule="evenodd" d="M25.62 7.546c-5.834 3.423-11.98 10.892-13.068 17.037.389-.233 1.867-.389 3.111-.389 5.99 0 10.734 4.668 10.734 11.436C26.397 42.4 20.952 48 14.03 48 6.562 48 .029 42.01.029 31.507.029 18.982 6.95 7.702 16.908.622l8.711 6.924zm33.602 0c-5.834 3.423-11.979 10.892-13.068 17.037.39-.233 1.867-.389 3.112-.389C55.256 24.194 60 28.862 60 35.63 60 42.4 54.555 48 47.632 48c-7.467 0-14-5.99-14-16.493 0-12.525 6.922-23.805 16.878-30.885l8.712 6.924z" opacity=".595"/>
</svg>
