<svg xmlns="http://www.w3.org/2000/svg" xmlns:xlink="http://www.w3.org/1999/xlink" width="27" height="20" viewBox="0 0 27 20">
    <defs>
        <path id="a" d="M5.716 7.596L2.634 4.514 3.66 3.486l2.055 2.055L10.339.918l1.027 1.027z"/>
    </defs>
    <g fill="none" fill-rule="evenodd">
        <path fill="#DDDFE0" d="M3.416 17.687c.254 1.016 1.242 1.822 2.173 1.822.96 0 1.525-.806 1.27-1.822-.253-1.016-1.241-1.823-2.173-1.823-.931 0-1.524.807-1.27 1.823m13.691-1.823c.96 0 1.92.807 2.174 1.823s-.31 1.822-1.27 1.822-1.92-.806-2.174-1.822.31-1.823 1.27-1.823"/>
        <path fill="#00BFD6" d="M18.208 4.153l3.303 12.996h-2.428c-.395-.747-1.185-1.285-1.976-1.285-.79 0-1.298.538-1.327 1.285H8.497L5.194 4.153h13.014z"/>
        <path fill="#FFF" d="M3.388 9.56h3.19l1.92 7.59H6.633c-.395-.748-1.186-1.286-1.976-1.286-.762 0-1.299.538-1.327 1.285H1.355L.48 13.713c-.536-2.3.734-4.153 2.908-4.153"/>
        <path fill="#FFF" d="M15.188 9.56c0 .538.395.957.903.957h4.037l-.48-1.913H16.09c-.508 0-.903.419-.903.956M4.686 12.22h4.009c.508 0 .903.418.903.956 0 .537-.395.956-.903.956H4.658c-.508 0-.903-.419-.903-.956.028-.538.423-.956.931-.956"/>
        <path fill="#77787B" d="M23.91 19.51c0 .179.142.328.311.328h.819c.17 0 .31-.15.31-.329 0-.179-.14-.328-.31-.328h-.819c-.198 0-.31.15-.31.328zM.227 13.772L1.1 17.21c.028.15.17.239.282.239h1.694c0 .09.028.209.056.299.142.567.509 1.105.932 1.464a.318.318 0 0 0-.141.268c0 .18.141.33.31.33h3.783c.17 0 .31-.15.31-.33 0-.179-.14-.328-.31-.328h-1.1c.31-.418.394-.986.253-1.584 0-.06-.028-.09-.028-.12h8.356c0 .09.028.21.057.3.14.567.48 1.075.903 1.434-.113.06-.198.15-.198.298 0 .18.141.33.31.33h5.477c.17 0 .31-.15.31-.33 0-.179-.14-.328-.31-.328h-2.71c.31-.418.396-.986.254-1.584 0-.06-.028-.09-.028-.12h1.948c.085 0 .17-.059.254-.119.057-.09.085-.179.057-.269l-1.666-6.542h-.621l1.609 6.303h-1.863c-.48-.746-1.299-1.284-2.146-1.284-.536 0-1.016.239-1.298.627-.141.18-.226.418-.282.657H8.779l-.677-2.688H7.48l.677 2.688H6.86c-.48-.746-1.299-1.284-2.146-1.284-.536 0-1.016.239-1.298.627-.141.18-.226.418-.283.657H1.666l-.509-2.061h.763c.169 0 .31-.15.31-.329 0-.179-.141-.328-.31-.328H.988l-.141-.508c-.254-1.046-.113-2.002.395-2.719.48-.657 1.27-1.046 2.202-1.046h2.908l.592 2.36h.622L5.618 4.482h2.936l.338 1.345c.029.15.17.239.283.239h.084c.17-.06.254-.21.226-.388l-.31-1.196h5.222l.339 1.345c.056.18.197.269.367.239.17-.06.254-.21.226-.388l-.31-1.196h2.963l1.045 4.123h.62l-1.157-4.54a.301.301 0 0 0-.282-.24h-3.331l-.085-.388C14.341 1.613 12.534.12 10.784.12c-.847 0-1.581.358-2.061.985-.48.658-.621 1.554-.395 2.51l.056.21h-3.19c-.084 0-.17.059-.254.119-.056.09-.084.179-.056.269l1.27 4.989H3.36c-1.129 0-2.06.448-2.681 1.285-.593.896-.763 2.061-.452 3.286zm8.977-12.28c.339-.477.903-.746 1.58-.746 1.497 0 3.021 1.285 3.417 2.868l.056.21H9.033l-.084-.39c-.226-.746-.113-1.433.254-1.941zm7.086 15.088c.169-.239.48-.388.818-.388.819 0 1.666.717 1.892 1.584.112.388.056.776-.142 1.045-.169.24-.48.389-.818.389-.819 0-1.666-.717-1.892-1.584-.113-.418-.056-.807.142-1.046zm-12.45 0c.17-.239.48-.388.819-.388.819 0 1.665.717 1.891 1.584.113.388.057.776-.14 1.045-.17.24-.48.389-.82.389-.818 0-1.665-.717-1.89-1.584-.086-.418-.03-.807.14-1.046zM23.63 9.89H16.09c-.17 0-.31-.15-.31-.329 0-.179.14-.328.31-.328h7.537c.17 0 .31.15.31.328 0 .18-.14.33-.31.33zM4.685 13.504c-.17 0-.31-.15-.31-.328 0-.18.14-.33.31-.33h4.009c.17 0 .31.15.31.33 0 .179-.14.328-.31.328H4.686zM25.378 9.56c0-.179.142-.328.311-.328h.819c.169 0 .31.15.31.328 0 .18-.141.33-.31.33h-.819c-.17 0-.31-.15-.31-.33zm-2.71 2.211h2.823c.17 0 .31.15.31.329 0 .18-.14.329-.31.329h-2.823c-.169 0-.31-.15-.31-.329.028-.18.141-.329.31-.329z"/>
        <g fill-rule="nonzero" stroke-linecap="round" stroke-linejoin="round">
            <g transform="translate(6 6)">
                <use fill="#FFF" fill-rule="evenodd" xlink:href="#a"/>
                <path stroke="#77787B" stroke-width=".5" d="M5.716 5.188L10.339.564l1.38 1.381L5.717 7.95 2.28 4.514l1.381-1.381 2.055 2.055z"/>
            </g>
        </g>
    </g>
</svg>
